<?xml version="1.0" ?><!DOCTYPE svg  PUBLIC '-//W3C//DTD SVG 1.1//EN'  'http://www.w3.org/Graphics/SVG/1.1/DTD/svg11.dtd'><svg height="32px" style="enable-background:new 0 0 32 32;" version="1.1" viewBox="0 0 32 32" width="32px" xml:space="preserve" xmlns="http://www.w3.org/2000/svg" xmlns:xlink="http://www.w3.org/1999/xlink"><g id="Layer_1"/><g id="equalizer"><g><path d="M20,20h-2V2c0-1.105-0.891-2-2-2c-1.102,0-2,0.895-2,2v18h-2v4h2v6c0,1.105,0.898,2,2,2    c1.109,0,2-0.895,2-2v-6h2V20z" style="fill:#4E4E50;"/><path d="M32,8h-2V2c0-1.105-0.891-2-2-2c-1.102,0-2,0.895-2,2v6h-2v4h2v18c0,1.105,0.898,2,2,2    c1.109,0,2-0.895,2-2V12h2V8z" style="fill:#4E4E50;"/><path d="M8,12H6V2c0-1.105-0.891-2-2-2C2.898,0,2,0.895,2,2v10H0v4h2v14c0,1.105,0.898,2,2,2    c1.109,0,2-0.895,2-2V16h2V12z" style="fill:#4E4E50;"/></g></g></svg>